<svg width="16" height="16" fill="none" xmlns="http://www.w3.org/2000/svg"><path d="M8 10a2 2 0 1 0 0-4 2 2 0 0 0 0 4Z" fill="#444"/><path d="M14.7 1.3c-.9-.9-2-1.3-3.4-1.3H4.7A4.5 4.5 0 0 0 0 4.7v6.6c0 1.4.4 2.6 1.4 3.4.9.9 2 1.3 3.3 1.3h6.6c1.4 0 2.6-.4 3.4-1.3a5 5 0 0 0 1.3-3.4V4.7c0-1.4-.4-2.6-1.3-3.4ZM8 12.1A4.1 4.1 0 0 1 3.9 8c0-2.3 1.9-4.1 4.1-4.1 2.2 0 4.1 1.8 4.1 4.1s-1.9 4.1-4.1 4.1Zm4.6-7.4c-.7 0-1.3-.5-1.3-1.3s.5-1.3 1.3-1.3c.7 0 1.3.6 1.3 1.3 0 .7-.6 1.3-1.3 1.3Z" fill="#444"/></svg>